<!-- GitHub icon -->
  <svg xmlns="http://www.w3.org/2000/svg" style="display:none;">
        <symbol id="icon-github" viewBox="0 0 24 24"  aria-hidden="true" role="img" >
                  <path
                      d="M12 0C5.37 0 0 5.37 0 12a12 12 0 008.21 11.44c.6.11.82-.26.82-.58v-2.17c-3.34.73-4.04-1.61-4.04-1.61-.55-1.4-1.34-1.77-1.34-1.77-1.1-.75.08-.73.08-.73 1.22.09 1.86 1.26 1.86 1.26 1.08 1.85 2.83 1.32 3.52 1.01.11-.78.42-1.32.76-1.62-2.67-.3-5.47-1.33-5.47-5.91 0-1.31.47-2.38 1.24-3.22-.13-.3-.54-1.52.12-3.17 0 0 1.01-.32 3.3 1.23a11.5 11.5 0 016 0c2.29-1.55 3.3-1.23 3.3-1.23.66 1.65.25 2.87.12 3.17.77.84 1.24 1.91 1.24 3.22 0 4.59-2.8 5.61-5.47 5.91.43.37.81 1.1.81 2.22v3.29c0 .32.21.7.82.58A12 12 0 0024 12c0-6.63-5.37-12-12-12z"
                    />
        </symbol>



<!-- LinkedIn icon -->
     <symbol id="icon-linkedin" viewBox="0 0 24 24"  aria-hidden="true" role="img">
                    <path  d="M20.452 20.452h-3.554v-5.569c0-1.328-.024-3.037-1.851-3.037-1.853 0-2.136 1.445-2.136 2.938v5.668H9.356V9h3.414v1.561h.049c.476-.9 1.637-1.851 3.367-1.851 3.6 0 4.266 2.37 4.266 5.455v6.287zM5.337 7.433a2.062 2.062 0 1 1 0-4.125 2.062 2.062 0 0 1 0 4.125zM6.943 20.452H3.73V9h3.213v11.452zM22.225 0H1.771C.792 0 0 .774 0 1.729v20.542C0 23.225.792 24 1.771 24h20.451C23.2 24 24 23.225 24 22.271V1.729C24 .774 23.2 0 22.225 0z" />
    </symbol>




<!-- Mail icon -->
        <symbol id="icon-mail" viewBox="0 0 24 24"  aria-hidden="true" role="img">
            <path d="M2 4a2 2 0 0 1 2-2h16a2 2 0 0 1 2 2v16a2 2 0 0 1-2 2H4a2 2 0 0 1-2-2V4zm2 0v.01L12 13 20 4.01V4H4zm16 2.243-8 7.757-8-7.757V20h16V6.243z"/>
        </symbol>


 <!-- Tel icon -->
        <symbol id="icon-phone" viewBox="0 0 24 24"  aria-hidden="true" role="img" >
            <path d="M6.62 10.79a15.053 15.053 0 0 0 6.59 6.59l2.2-2.2a1 1 0 0 1 1.01-.24c1.12.37 2.33.57 3.58.57a1 1 0 0 1 1 1v3.5a1 1 0 0 1-1 1C9.39 21 3 14.61 3 6.5a1 1 0 0 1 1-1H7.5a1 1 0 0 1 1 1c0 1.25.2 2.46.57 3.58a1 1 0 0 1-.24 1.01l-2.2 2.2z"/>
        </symbol>

<!-- Live Demo Icon -->
  <symbol id="icon-live-demo" viewBox="0 0 24 24" aria-hidden="true" role="img" >
    <path d="M14 3h7v7h-2V6.41l-9.29 9.3-1.42-1.42L17.59 5H14V3z" />
    <path d="M5 5h7V3H5a2 2 0 0 0-2 2v14a2 2 0 0 0 2 2h14a2 2 0 0 0 2-2v-7h-2v7H5V5z" />
  </symbol>

  <symbol id="icon-git" viewBox="0 0 32 32"   aria-hidden="true"  role="img" >
  <path d="M2.58536 17.4132C1.80488 16.6327 1.80488 15.3673 2.58536 14.5868L14.5868 2.58536C15.3673 1.80488 16.6327 1.80488 17.4132 2.58536L29.4146 14.5868C30.1951 15.3673 30.1951 16.6327 29.4146 17.4132L17.4132 29.4146C16.6327 30.1951 15.3673 30.1951 14.5868 29.4146L2.58536 17.4132Z" fill="#EE513B"/>
  <path d="M12.1489 5.06152L10.9336 6.27686L14.0725 9.41577C13.9455 9.68819 13.8746 9.99201 13.8746 10.3124C13.8746 11.222 14.4461 11.9981 15.2496 12.3012V19.9798C14.4461 20.2829 13.8746 21.059 13.8746 21.9686C13.8746 23.1422 14.826 24.0936 15.9996 24.0936C17.1732 24.0936 18.1246 23.1422 18.1246 21.9686C18.1246 21.144 17.6549 20.429 16.9684 20.0768V12.3117L19.9689 15.3122C19.8481 15.5791 19.7809 15.8754 19.7809 16.1874C19.7809 17.361 20.7323 18.3124 21.9059 18.3124C23.0795 18.3124 24.0309 17.361 24.0309 16.1874C24.0309 15.0138 23.0795 14.0624 21.9059 14.0624C21.6778 14.0624 21.4582 14.0983 21.2522 14.1648L18.0297 10.9423C18.0914 10.7433 18.1246 10.5317 18.1246 10.3124C18.1246 9.13878 17.1732 8.18738 15.9996 8.18738C15.7803 8.18738 15.5688 8.22061 15.3697 8.2823L12.1489 5.06152Z" fill="white"/>
</symbol>

<symbol  id="icon-html" viewBox="0 0 32 32"   aria-hidden="true"  role="img">
<path d="M6 28L4 3H28L26 28L16 31L6 28Z" fill="#E44D26"/>
<path d="M26 5H16V29.5L24 27L26 5Z" fill="#F16529"/>
<path d="M9.5 17.5L8.5 8H24L23.5 11H11.5L12 14.5H23L22 24L16 26L10 24L9.5 19H12.5L13 21.5L16 22.5L19 21.5L19.5 17.5H9.5Z" fill="white"/>
</symbol>

<symbol id="icon-css" viewBox="0 0 32 32"   aria-hidden="true"  role="img">
<path d="M6 28L4 3H28L26 28L16 31L6 28Z" fill="#1172B8"/>
<path d="M26 5H16V29.5L24 27L26 5Z" fill="#33AADD"/>
<path d="M19.5 17.5H9.5L9 14L17 11.5H9L8.5 8.5H24L23.5 12L17 14.5H23L22 24L16 26L10 24L9.5 19H12.5L13 21.5L16 22.5L19 21.5L19.5 17.5Z" fill="white"/>
</symbol>

<symbol id="icon-js" viewBox="0 0 32 32"   aria-hidden="true"  role="img">
<rect x="2" y="2" width="28" height="28" style="fill:#f5de19"/><path d="M20.809,23.875a2.866,2.866,0,0,0,2.6,1.6c1.09,0,1.787-.545,1.787-1.3,0-.9-.716-1.222-1.916-1.747l-.658-.282c-1.9-.809-3.16-1.822-3.16-3.964,0-1.973,1.5-3.476,3.853-3.476a3.889,3.889,0,0,1,3.742,2.107L25,18.128A1.789,1.789,0,0,0,23.311,17a1.145,1.145,0,0,0-1.259,1.128c0,.789.489,1.109,1.618,1.6l.658.282c2.236.959,3.5,1.936,3.5,4.133,0,2.369-1.861,3.667-4.36,3.667a5.055,5.055,0,0,1-4.795-2.691Zm-9.295.228c.413.733.789,1.353,1.693,1.353.864,0,1.41-.338,1.41-1.653V14.856h2.631v8.982c0,2.724-1.6,3.964-3.929,3.964a4.085,4.085,0,0,1-3.947-2.4Z"/>
</symbol>


<symbol id="icon-typescript" viewBox="0 0 32 32"   aria-hidden="true"  role="img">
<rect x="2" y="2" width="28" height="28" rx="1.312" style="fill:#3178c6"/><path d="M18.245,23.759v3.068a6.492,6.492,0,0,0,1.764.575,11.56,11.56,0,0,0,2.146.192,9.968,9.968,0,0,0,2.088-.211,5.11,5.11,0,0,0,1.735-.7,3.542,3.542,0,0,0,1.181-1.266,4.469,4.469,0,0,0,.186-3.394,3.409,3.409,0,0,0-.717-1.117,5.236,5.236,0,0,0-1.123-.877,12.027,12.027,0,0,0-1.477-.734q-.6-.249-1.08-.484a5.5,5.5,0,0,1-.813-.479,2.089,2.089,0,0,1-.516-.518,1.091,1.091,0,0,1-.181-.618,1.039,1.039,0,0,1,.162-.571,1.4,1.4,0,0,1,.459-.436,2.439,2.439,0,0,1,.726-.283,4.211,4.211,0,0,1,.956-.1,5.942,5.942,0,0,1,.808.058,6.292,6.292,0,0,1,.856.177,5.994,5.994,0,0,1,.836.3,4.657,4.657,0,0,1,.751.422V13.9a7.509,7.509,0,0,0-1.525-.4,12.426,12.426,0,0,0-1.9-.129,8.767,8.767,0,0,0-2.064.235,5.239,5.239,0,0,0-1.716.733,3.655,3.655,0,0,0-1.171,1.271,3.731,3.731,0,0,0-.431,1.845,3.588,3.588,0,0,0,.789,2.34,6,6,0,0,0,2.395,1.639q.63.26,1.175.509a6.458,6.458,0,0,1,.942.517,2.463,2.463,0,0,1,.626.585,1.2,1.2,0,0,1,.23.719,1.1,1.1,0,0,1-.144.552,1.269,1.269,0,0,1-.435.441,2.381,2.381,0,0,1-.726.292,4.377,4.377,0,0,1-1.018.105,5.773,5.773,0,0,1-1.969-.35A5.874,5.874,0,0,1,18.245,23.759Zm-5.154-7.638h4V13.594H5.938v2.527H9.92V27.375h3.171Z" style="fill:#ffffff;fill-rule:evenodd"/>
</symbol>


<symbol id="icon-react" viewBox="0 0 32 32"   aria-hidden="true"  role="img">
<path d="M18.6789 15.9759C18.6789 14.5415 17.4796 13.3785 16 13.3785C14.5206 13.3785 13.3211 14.5415 13.3211 15.9759C13.3211 17.4105 14.5206 18.5734 16 18.5734C17.4796 18.5734 18.6789 17.4105 18.6789 15.9759Z" fill="#53C1DE"/>
<path fill-rule="evenodd" clip-rule="evenodd" d="M24.7004 11.1537C25.2661 8.92478 25.9772 4.79148 23.4704 3.39016C20.9753 1.99495 17.7284 4.66843 16.0139 6.27318C14.3044 4.68442 10.9663 2.02237 8.46163 3.42814C5.96751 4.82803 6.73664 8.8928 7.3149 11.1357C4.98831 11.7764 1 13.1564 1 15.9759C1 18.7874 4.98416 20.2888 7.29698 20.9289C6.71658 23.1842 5.98596 27.1909 8.48327 28.5877C10.9973 29.9932 14.325 27.3945 16.0554 25.7722C17.7809 27.3864 20.9966 30.0021 23.4922 28.6014C25.9956 27.1963 25.3436 23.1184 24.7653 20.8625C27.0073 20.221 31 18.7523 31 15.9759C31 13.1835 26.9903 11.7923 24.7004 11.1537ZM24.4162 19.667C24.0365 18.5016 23.524 17.2623 22.8971 15.9821C23.4955 14.7321 23.9881 13.5088 24.3572 12.3509C26.0359 12.8228 29.7185 13.9013 29.7185 15.9759C29.7185 18.07 26.1846 19.1587 24.4162 19.667ZM22.85 27.526C20.988 28.571 18.2221 26.0696 16.9478 24.8809C17.7932 23.9844 18.638 22.9422 19.4625 21.7849C20.9129 21.6602 22.283 21.4562 23.5256 21.1777C23.9326 22.7734 24.7202 26.4763 22.85 27.526ZM9.12362 27.5111C7.26143 26.47 8.11258 22.8946 8.53957 21.2333C9.76834 21.4969 11.1286 21.6865 12.5824 21.8008C13.4123 22.9332 14.2816 23.9741 15.1576 24.8857C14.0753 25.9008 10.9945 28.557 9.12362 27.5111ZM2.28149 15.9759C2.28149 13.874 5.94207 12.8033 7.65904 12.3326C8.03451 13.5165 8.52695 14.7544 9.12123 16.0062C8.51925 17.2766 8.01977 18.5341 7.64085 19.732C6.00369 19.2776 2.28149 18.0791 2.28149 15.9759ZM9.1037 4.50354C10.9735 3.45416 13.8747 6.00983 15.1159 7.16013C14.2444 8.06754 13.3831 9.1006 12.5603 10.2265C11.1494 10.3533 9.79875 10.5569 8.55709 10.8297C8.09125 9.02071 7.23592 5.55179 9.1037 4.50354ZM20.3793 11.5771C21.3365 11.6942 22.2536 11.85 23.1147 12.0406C22.8562 12.844 22.534 13.6841 22.1545 14.5453C21.6044 13.5333 21.0139 12.5416 20.3793 11.5771ZM16.0143 8.0481C16.6054 8.66897 17.1974 9.3623 17.7798 10.1145C16.5985 10.0603 15.4153 10.0601 14.234 10.1137C14.8169 9.36848 15.414 8.67618 16.0143 8.0481ZM9.8565 14.5444C9.48329 13.6862 9.16398 12.8424 8.90322 12.0275C9.75918 11.8418 10.672 11.69 11.623 11.5748C10.9866 12.5372 10.3971 13.5285 9.8565 14.5444ZM11.6503 20.4657C10.6679 20.3594 9.74126 20.2153 8.88556 20.0347C9.15044 19.2055 9.47678 18.3435 9.85796 17.4668C10.406 18.4933 11.0045 19.4942 11.6503 20.4657ZM16.0498 23.9915C15.4424 23.356 14.8365 22.6531 14.2448 21.8971C15.4328 21.9423 16.6231 21.9424 17.811 21.891C17.2268 22.6608 16.6369 23.3647 16.0498 23.9915ZM22.1667 17.4222C22.5677 18.3084 22.9057 19.1657 23.1742 19.9809C22.3043 20.1734 21.3652 20.3284 20.3757 20.4435C21.015 19.4607 21.6149 18.4536 22.1667 17.4222ZM18.7473 20.5941C16.9301 20.72 15.1016 20.7186 13.2838 20.6044C12.2509 19.1415 11.3314 17.603 10.5377 16.0058C11.3276 14.4119 12.2404 12.8764 13.2684 11.4158C15.0875 11.2825 16.9178 11.2821 18.7369 11.4166C19.7561 12.8771 20.6675 14.4086 21.4757 15.9881C20.6771 17.5812 19.7595 19.1198 18.7473 20.5941ZM22.8303 4.4666C24.7006 5.51254 23.8681 9.22726 23.4595 10.8426C22.2149 10.5641 20.8633 10.3569 19.4483 10.2281C18.6239 9.09004 17.7698 8.05518 16.9124 7.15949C18.1695 5.98441 20.9781 3.43089 22.8303 4.4666Z" fill="#53C1DE"/>
</symbol>



 </svg>






 